# xmcd CD database file
# Copyright (C) 1993-1998 Ti Kan
# 
# Track frame offsets:
#     150
#     18925
#     37337
#     54985
#     70850
#     87057
#     110240
#     128860
#     150577
#     172370
#     191805
#     214767
#     234295
#     254362
#     274515
#     295947
#     311725
# 
# Disc length: 4399 seconds
# 
# Revision: 1
# Processed by: cddbd v1.4b41PL1 Copyright (c) Steve Scherf et al.
# Submitted via: DiscPlay 4.0.4
# 
DISCID=fb112d11
DTITLE=Mariah Carey - Gold
DYEAR=1900
DGENRE=
TTITLE0=Emotions
TTITLE1=Fantasy
TTITLE2=Dreamlover
TTITLE3=Vision of love
TTITLE4=Without You
TTITLE5=Make it happen
TTITLE6=Someday
TTITLE7=I'll be there
TTITLE8=I don't wanna cry
TTITLE9=Always be my baby
TTITLE10=You're so cold
TTITLE11=Hero
TTITLE12=Anytime you need a friend
TTITLE13=Can't let go
TTITLE14=All in your mind
TTITLE15=Open arms
TTITLE16=All I want for Christmas is you
EXTD=
EXTT0=
EXTT1=
EXTT2=
EXTT3=
EXTT4=
EXTT5=
EXTT6=
EXTT7=
EXTT8=
EXTT9=
EXTT10=
EXTT11=
EXTT12=
EXTT13=
EXTT14=
EXTT15=
EXTT16=
PLAYORDER=
